HIERARCHY
ROOT Hips
{
	OFFSET 0.000000 0.000000 0.000000
	CHANNELS 6 Xposition Yposition Zposition Yrotation Xrotation Zrotation
	JOINT Chest
	{
		OFFSET 0.000000 -0.009281 11.569106
		CHANNELS 3 Yrotation Xrotation Zrotation
		JOINT Chest2
		{
			OFFSET -0.000000 0.016865 9.269641
			CHANNELS 3 Yrotation Xrotation Zrotation
			JOINT Chest3
			{
				OFFSET -0.000000 0.000001 8.374491
				CHANNELS 3 Yrotation Xrotation Zrotation
				JOINT Chest4
				{
					OFFSET -0.000000 0.000001 8.374493
					CHANNELS 3 Yrotation Xrotation Zrotation
					JOINT Neck
					{
						OFFSET -0.000000 0.000002 12.152554
						CHANNELS 3 Yrotation Xrotation Zrotation
						JOINT Head
						{
							OFFSET -0.000000 0.040101 7.802319
							CHANNELS 3 Yrotation Xrotation Zrotation
							End Site
							{
								OFFSET -0.000000 0.020947 14.853096
							}
						}
					}
					JOINT RightCollar
					{
						OFFSET 2.894404 0.000001 6.791374
						CHANNELS 3 Yrotation Xrotation Zrotation
						JOINT RightShoulder
						{
							OFFSET 13.574684 0.000001 0.000000
							CHANNELS 3 Yrotation Xrotation Zrotation
							JOINT RightElbow
							{
								OFFSET 23.923903 0.000002 0.000000
								CHANNELS 3 Yrotation Xrotation Zrotation
								JOINT RightWrist
								{
									OFFSET 19.846718 0.012767 0.000000
									CHANNELS 3 Yrotation Xrotation Zrotation
									End Site
									{
										OFFSET 14.973145 0.000001 0.000000
									}
								}
							}
						}
					}
					JOINT LeftCollar
					{
						OFFSET -2.894404 0.000001 6.791374
						CHANNELS 3 Yrotation Xrotation Zrotation
						JOINT LeftShoulder
						{
							OFFSET -13.574684 -0.000001 0.000000
							CHANNELS 3 Yrotation Xrotation Zrotation
							JOINT LeftElbow
							{
								OFFSET -23.923903 -0.000002 0.000000
								CHANNELS 3 Yrotation Xrotation Zrotation
								JOINT LeftWrist
								{
									OFFSET -19.846718 0.012763 0.000000
									CHANNELS 3 Yrotation Xrotation Zrotation
									End Site
									{
										OFFSET -14.973145 -0.000001 0.000000
									}
								}
							}
						}
					}
				}
			}
		}
	}
	JOINT RightHip
	{
		OFFSET 9.469263 0.004643 0.045487
		CHANNELS 3 Yrotation Xrotation Zrotation
		JOINT RightKnee
		{
			OFFSET 0.000000 0.002661 -40.478676
			CHANNELS 3 Yrotation Xrotation Zrotation
			JOINT RightAnkle
			{
				OFFSET 0.000000 0.049106 -35.224068
				CHANNELS 3 Yrotation Xrotation Zrotation
				JOINT RightToe
				{
					OFFSET -0.000001 12.539529 -6.151390
					CHANNELS 3 Yrotation Xrotation Zrotation
					End Site
					{
						OFFSET -0.000001 5.044994 -1.291870
					}
				}
			}
		}
	}
	JOINT LeftHip
	{
		OFFSET -9.469263 0.004641 0.045487
		CHANNELS 3 Yrotation Xrotation Zrotation
		JOINT LeftKnee
		{
			OFFSET 0.000000 0.002661 -40.478676
			CHANNELS 3 Yrotation Xrotation Zrotation
			JOINT LeftAnkle
			{
				OFFSET 0.000000 0.049106 -35.224068
				CHANNELS 3 Yrotation Xrotation Zrotation
				JOINT LeftToe
				{
					OFFSET -0.000001 12.539529 -6.151390
					CHANNELS 3 Yrotation Xrotation Zrotation
					End Site
					{
						OFFSET -0.000001 5.044994 -1.291870
					}
				}
			}
		}
	}
}
MOTION
Frames: 15
Frame Time: 0.016667
20.035057 15.207501 81.021828 -11.755766 3.046627 -116.560812 5.174231 -10.189769 -3.832403 2.196836 -4.575029 -1.645168 2.196839 -4.575031 -1.645168 1.634425 -3.437263 -1.216764 7.756809 -10.749884 -20.401568 6.020399 15.588980 -35.822741 3.040884 6.837898 -4.786354 26.782869 7.184654 21.502025 -7.591731 -39.872326 -1.293307 -30.437874 29.643561 52.279187 -5.052805 -8.402078 -16.786180 -62.351513 -23.050186 -45.932957 -33.404188 -15.018531 -47.134664 38.024353 49.636655 -45.541130 -8.886195 7.172715 8.219427 -1.090504 -37.011200 6.136563 -4.379005 18.634563 -5.553135 0.128977 0.055418 0.162559 -9.498124 0.354730 -0.856177 -7.656653 -24.443936 11.717715 5.270215 15.145851 6.476196 -0.084787 -0.056413 -0.189255 
20.059790 15.169470 81.084579 -11.688817 3.028873 -116.260502 5.138550 -10.094273 -3.933967 2.180708 -4.532797 -1.696232 2.180708 -4.532797 -1.696232 1.622087 -3.405729 -1.255330 7.728105 -10.782428 -20.386361 5.980196 15.525447 -35.800778 2.946442 7.043705 -4.692358 26.673948 7.145715 21.032132 -7.541646 -40.110805 -2.440497 -29.843921 28.729432 52.084741 -5.046861 -8.446822 -16.660223 -62.019197 -23.573061 -46.179455 -33.686496 -15.360597 -46.341625 38.266910 49.479840 -45.409017 -8.873305 6.945990 8.121378 -0.935539 -36.653848 5.905692 -4.433939 18.490280 -5.592743 0.139415 0.059691 0.167099 -9.483080 0.239722 -1.026779 -7.472925 -24.192691 11.492757 5.241958 14.968218 6.514965 -0.099289 -0.056647 -0.193476 
20.088465 15.127997 81.149796 -11.624926 3.008120 -115.938349 5.114481 -10.026785 -4.044845 2.167392 -4.502735 -1.747435 2.167392 -4.502734 -1.747437 1.611825 -3.383325 -1.293924 7.706483 -10.776667 -20.368587 5.945092 15.533477 -35.777221 2.874760 7.078729 -4.469043 26.461700 7.362373 20.492094 -7.516849 -40.306466 -3.424001 -29.493358 27.879077 51.591919 -5.098328 -8.415745 -16.482061 -61.466266 -24.154638 -46.504941 -33.859150 -15.774428 -45.544873 38.293124 49.208388 -45.343939 -8.860614 6.692989 7.978640 -0.795493 -36.271272 5.703724 -4.491160 18.342003 -5.658159 0.145655 0.060740 0.171915 -9.470711 0.108882 -1.206308 -7.269417 -23.932296 11.270440 5.200042 14.786089 6.514302 -0.111805 -0.055461 -0.192431 
20.120857 15.076462 81.216995 -11.554879 2.981692 -115.594217 5.084652 -9.939928 -4.124607 2.149127 -4.463882 -1.784427 2.149130 -4.463883 -1.784424 1.597987 -3.354263 -1.321937 7.697347 -10.780292 -20.378457 5.924793 15.523355 -35.799521 2.807907 6.964428 -4.366402 26.232363 7.596203 20.035679 -7.448005 -40.161478 -4.350507 -28.949364 26.680944 50.637014 -5.150758 -8.317588 -16.388221 -60.821667 -24.867508 -46.764174 -33.638709 -16.273295 -44.858312 38.424073 48.815342 -45.210480 -8.835955 6.421923 7.815181 -0.654862 -35.865672 5.514139 -4.567881 18.183907 -5.746839 0.156630 0.062731 0.181632 -9.449667 -0.025395 -1.380379 -7.039950 -23.671909 11.022336 5.145758 14.604894 6.504221 -0.124490 -0.057390 -0.188233 
20.157888 15.023340 81.286560 -11.485632 2.950790 -115.235058 5.036889 -9.833987 -4.197094 2.125150 -4.418004 -1.820677 2.125152 -4.418005 -1.820681 1.579905 -3.319912 -1.349458 7.685215 -10.817318 -20.393442 5.904894 15.451134 -35.827313 2.714876 6.952044 -4.403088 26.023504 7.723280 19.696666 -7.365425 -40.114565 -5.300298 -28.024990 24.879195 49.094829 -5.161960 -8.250961 -16.395755 -60.253053 -25.549670 -46.957158 -33.354802 -16.837687 -44.189668 38.679129 48.587988 -45.000647 -8.811969 6.134653 7.647815 -0.500499 -35.443125 5.304137 -4.653125 18.017962 -5.814684 0.171194 0.067619 0.189461 -9.415126 -0.172859 -1.553157 -6.809667 -23.405291 10.736542 5.097955 14.423404 6.411908 -0.138413 -0.060320 -0.191627 
20.195793 14.967896 81.357002 -11.413232 2.910330 -114.866146 4.985488 -9.693394 -4.274847 2.101075 -4.359773 -1.861905 2.101076 -4.359773 -1.861908 1.561756 -3.276307 -1.380763 7.659030 -10.893880 -20.408219 5.868219 15.303879 -35.854197 2.639072 7.245173 -4.540961 25.763856 7.598513 19.376258 -7.328429 -40.261749 -6.277501 -26.569602 22.575307 47.210664 -5.097968 -8.363535 -16.436254 -59.727054 -26.112254 -47.239893 -33.417653 -17.295625 -43.478826 38.781654 48.547526 -44.822351 -8.781546 5.842945 7.488282 -0.324610 -35.014804 5.053125 -4.743461 17.842930 -5.848046 0.186518 0.079049 0.186834 -9.387267 -0.319247 -1.733338 -6.564584 -23.139030 10.407003 5.057755 14.237368 6.447007 -0.145738 -0.062555 -0.186303 
20.233677 14.919217 81.426811 -11.350000 2.859754 -114.474476 4.938159 -9.534877 -4.382520 2.080205 -4.294905 -1.913973 2.080208 -4.294907 -1.913972 1.545968 -3.227772 -1.420182 7.623359 -10.992495 -20.414206 5.822553 15.115634 -35.864743 2.526725 7.664151 -4.618756 25.438099 7.401937 18.970630 -7.272882 -40.499057 -7.252547 -24.864925 20.117607 45.348331 -5.054708 -8.538927 -16.429301 -59.144029 -26.622042 -47.557077 -33.746223 -17.674388 -42.725091 38.724372 48.311239 -44.706788 -8.758519 5.533751 7.302942 -0.131681 -34.581111 4.783720 -4.847220 17.664788 -5.865388 0.207312 0.091661 0.185766 -9.357186 -0.470856 -1.954581 -6.305935 -22.887609 10.054334 5.009928 14.051586 6.479453 -0.153274 -0.063543 -0.183401 
20.271015 14.865826 81.496391 -11.298765 2.788263 -114.044461 4.895364 -9.421582 -4.488112 2.059012 -4.247627 -1.960964 2.059014 -4.247628 -1.960962 1.529917 -3.192404 -1.455735 7.614723 -11.056698 -20.426637 5.816946 14.995235 -35.881559 2.450207 7.995244 -4.603731 25.031269 7.424143 18.503174 -7.199995 -40.638683 -8.150524 -23.182179 17.780306 43.777981 -5.036356 -8.599037 -16.402932 -58.387052 -27.150272 -47.974262 -33.942372 -18.155283 -41.982724 38.462533 47.993700 -44.544663 -8.734787 5.178620 7.027917 0.061477 -34.111963 4.541753 -4.967107 17.485076 -5.871287 0.223137 0.093198 0.183381 -9.318942 -0.629420 -2.243100 -6.059104 -22.657144 9.703633 4.980069 13.867267 6.570502 -0.164849 -0.061870 -0.171788 
20.312023 14.808868 81.566849 -11.259888 2.704263 -113.552441 4.854847 -9.333254 -4.600678 2.039458 -4.209565 -2.004952 2.039455 -4.209564 -2.004951 1.515090 -3.163943 -1.488983 7.625289 -11.092292 -20.445452 5.838059 14.930334 -35.907001 2.393416 8.077622 -4.484339 24.567714 7.785676 18.008161 -7.091063 -40.726010 -8.923669 -21.517333 15.536747 41.991655 -5.048354 -8.574205 -16.345399 -57.492216 -27.738964 -48.452764 -33.835432 -18.817432 -41.322655 38.035274 47.722119 -44.264738 -8.723141 4.765442 6.619103 0.242078 -33.596744 4.361710 -5.087524 17.304604 -5.874851 0.223564 0.085651 0.184578 -9.271598 -0.808683 -2.577977 -5.787108 -22.433104 9.321714 4.952997 13.686382 6.641284 -0.188762 -0.067315 -0.161563 
20.353649 14.738594 81.637070 -11.218119 2.606128 -113.009831 4.842420 -9.225223 -4.737094 2.028141 -4.163599 -2.061827 2.028143 -4.163600 -2.061824 1.506386 -3.129620 -1.531870 7.617447 -11.143732 -20.448367 5.834618 14.834665 -35.907442 2.270107 7.981792 -4.391675 24.108549 8.249920 17.660289 -6.959992 -40.664942 -9.602286 -19.535736 13.190256 39.340728 -5.141089 -8.484569 -16.312580 -56.641929 -28.347138 -48.815618 -33.674188 -19.539571 -40.763737 37.807365 47.589196 -43.978850 -8.711155 4.320884 6.146288 0.463973 -33.050975 4.196231 -5.223302 17.113370 -5.894268 0.207323 0.080371 0.185635 -9.212715 -0.993870 -2.901790 -5.483572 -22.219517 8.927474 4.924164 13.523834 6.709210 -0.216977 -0.082534 -0.143288 
20.396469 14.659383 81.705872 -11.156257 2.493805 -112.396671 4.877504 -9.064381 -4.936965 2.026072 -4.100765 -2.135284 2.026073 -4.100766 -2.135282 1.504579 -3.082734 -1.587186 7.571626 -11.226141 -20.428698 5.776110 14.677221 -35.876132 2.114061 8.103377 -4.332529 23.598194 8.486143 17.340541 -6.890334 -40.383452 -10.169065 -16.912938 10.270217 35.644602 -5.249091 -8.487091 -16.300146 -55.951458 -28.895255 -49.090851 -33.761557 -20.117106 -40.262415 37.853772 47.395618 -43.746535 -8.682765 3.863296 5.623711 0.718973 -32.485691 4.008455 -5.340833 16.921268 -5.890907 0.165010 0.076864 0.163394 -9.102024 -1.152614 -3.215869 -5.148153 -22.057246 8.476304 4.838014 13.383836 6.666666 -0.218728 -0.088073 -0.060163 
20.444574 14.580450 81.775192 -11.108646 2.402004 -111.792472 4.879827 -8.903706 -5.098566 2.024042 -4.032388 -2.209646 2.024042 -4.032388 -2.209642 1.502828 -3.031692 -1.643196 7.523288 -11.316766 -20.407675 5.715380 14.504451 -35.841964 1.951642 8.738240 -4.430322 23.053615 8.286624 17.036855 -6.819322 -40.140919 -10.762263 -13.842833 6.814594 31.313904 -5.308056 -8.548894 -16.319810 -55.422962 -29.320189 -49.307156 -34.078194 -20.623782 -39.821424 37.802730 47.218505 -43.293468 -8.673031 3.396984 5.163432 1.002545 -31.915517 3.770321 -5.457038 16.724505 -5.909420 0.131572 0.081773 0.167556 -9.044600 -1.350306 -3.445339 -4.772401 -21.832619 7.959684 4.826364 13.242285 6.674963 -0.258645 -0.116409 -0.060234 
20.490334 14.498796 81.845528 -11.058143 2.321520 -111.162825 4.872389 -8.748491 -5.228721 2.020183 -3.967646 -2.271808 2.020183 -3.967646 -2.271808 1.499788 -2.983326 -1.690064 7.491859 -11.398697 -20.404768 5.677279 14.348764 -35.836527 1.780890 9.650237 -4.560703 22.517780 7.904208 16.666469 -6.733262 -39.949175 -11.452970 -10.719859 3.108994 26.924520 -5.366595 -8.606534 -16.386350 -54.995717 -29.577741 -49.482542 -34.449429 -21.233340 -39.431201 37.374577 46.909917 -42.563266 -8.666708 2.930384 4.705550 1.296297 -31.338848 3.486984 -5.555829 16.524132 -5.899111 0.097359 0.092411 0.162739 -8.988935 -1.548499 -3.658667 -4.402588 -21.586128 7.406713 4.820580 13.090050 6.791593 -0.283553 -0.139685 -0.056794 
20.538649 14.422360 81.916908 -11.006413 2.247075 -110.498220 4.868446 -8.579381 -5.345949 2.019793 -3.894961 -2.327260 2.019792 -3.894960 -2.327259 1.499436 -2.928994 -1.731907 7.460586 -11.486102 -20.411033 5.637273 14.181822 -35.847592 1.655850 10.399037 -4.473540 21.920640 7.724801 16.131544 -6.628326 -39.602075 -12.156203 -7.711226 -0.190721 22.519403 -5.487846 -8.655008 -16.427674 -54.630961 -29.728122 -49.632618 -34.709508 -21.947184 -39.061527 36.345120 46.118250 -41.750122 -8.655753 2.448986 4.223091 1.570180 -30.743108 3.202918 -5.636825 16.318821 -5.887369 0.067795 0.104742 0.159981 -8.908765 -1.745685 -3.890821 -4.062471 -21.333952 6.863465 4.806797 12.935823 6.800155 -0.296772 -0.154829 -0.057365 
20.589245 14.345479 81.988930 -10.959479 2.171232 -109.800530 4.861538 -8.405790 -5.434924 2.019032 -3.818804 -2.369773 2.019034 -3.818805 -2.369771 1.498913 -2.872019 -1.764062 7.438681 -11.569926 -20.422826 5.611884 14.022769 -35.865781 1.499753 10.705907 -4.377058 21.424869 8.041709 15.691689 -6.557245 -38.966021 -12.767141 -5.097967 -2.952484 18.132486 -5.641682 -8.672765 -16.471006 -54.267574 -29.849658 -49.758765 -34.787885 -22.724992 -38.744091 35.068428 44.894284 -40.733483 -8.634646 1.934377 3.718468 1.829789 -30.107429 2.918294 -5.704138 16.104283 -5.866352 0.040406 0.112610 0.158182 -8.816636 -1.948479 -4.133706 -3.740273 -21.075969 6.349508 4.783040 12.778571 6.707954 -0.297926 -0.162885 -0.058700 
